# xmcd CD database file
#
# Track frame offsets:
#	150
#	16806
#	34953
#	55732
#	77580
#	100223
#	118508
#	138814
#	155705
#	174298
#	189536
#
# Disc length: 2829 seconds
#
# Revision: 0
# Processed by: cddbd v1.5.2PL0 Copyright (c) Steve Scherf et al.
# Submitted via: CDex 1.51
#
DISCID=820b0b0b
DTITLE=Matthew Ballard - Time
DYEAR=2007
DGENRE=Country
TTITLE0=Wrapped Up In You
TTITLE1=Her Dreams
TTITLE2=Fatigues
TTITLE3=Will You Fall
TTITLE4=One Line At A Time
TTITLE5=Am To Blame
TTITLE6=Take Me Home
TTITLE7=Right Train, Wrong Track
TTITLE8=The Last Cowboy
TTITLE9=Time
TTITLE10=Matthew Ballard - The Devil In Palestine
EXTD=YEAR: 2007
EXTT0=
EXTT1=
EXTT2=
EXTT3=
EXTT4=
EXTT5=
EXTT6=
EXTT7=
EXTT8=
EXTT9=
EXTT10=
PLAYORDER=
